<svg version="1.1" id="Layer_1" xmlns="http://www.w3.org/2000/svg" x="0" y="0" viewBox="0 0 32 32" style="enable-background:new 0 0 32 32" xml:space="preserve">
  <style></style>
  <path style="fill: rgb(75, 75, 75);" d="M16 22.5c-5.514 0-10-4.486-10-10a1 1 0 1 1 2 0c0 4.411 3.589 8 8 8s8-3.589 8-8a1 1 0 1 1 2 0c0 5.514-4.486 10-10 10z"/>
  <path style="fill: rgb(75, 75, 75);" d="M16 29a1 1 0 0 1-1-1v-6.5a1 1 0 1 1 2 0V28a1 1 0 0 1-1 1z"/>
  <path style="fill: rgb(75, 75, 75);" d="M19.25 29h-6.5a1 1 0 1 1 0-2h6.5a1 1 0 1 1 0 2z"/>
  <path style="fill: rgb(75, 75, 75);" d="M18.62 7.88V6.62a2.62 2.62 0 0 0-5.24 0v6.5l5.24-5.24zM13.905 15.939A2.609 2.609 0 0 0 16 17a2.62 2.62 0 0 0 2.62-2.62v-3.157l-4.715 4.716z"/>
  <path style="fill: rgb(255, 0, 0);" d="M11 16.5a1 1 0 0 1-.707-1.707l10-10a1 1 0 1 1 1.414 1.414l-10 10A.997.997 0 0 1 11 16.5z"/>
</svg>
